<?xml version="1.0" encoding="UTF-8"?>
<svg width="83px" height="83px" viewBox="0 0 83 83" version="1.1" xmlns="http://www.w3.org/2000/svg" xmlns:xlink="http://www.w3.org/1999/xlink">
    <!-- Generator: Sketch 51.3 (57544) - http://www.bohemiancoding.com/sketch -->
    <title>dream</title>
    <desc>Created with Sketch.</desc>
    <defs></defs>
    <g id="QUESTIONS" stroke="none" stroke-width="1" fill="none" fill-rule="evenodd">
        <g id="QUESTION-1---BREAK-UI" transform="translate(-678.000000, -160.000000)" fill-rule="nonzero">
            <g id="popp">
                <g id="content" transform="translate(494.000000, 160.000000)">
                    <g id="dream" transform="translate(184.000000, 0.000000)">
                        <path d="M42,2 C19.9086334,2 2,19.9086334 2,42 C2,48.9506633 3.77395535,55.4865196 6.8920875,61.1813703 L2.18519046,81.8148095 L22.8183042,77.1079125 C28.5134804,80.2260446 35.0493367,82 42,82 C64.0913666,82 82,64.0915293 82,42 C82,19.9084707 64.0913666,2 42,2 Z" id="Shape" fill="#2996F8"></path>
                        <path d="M41.5,83 C34.7580332,83 28.083666,81.3500508 22.1554883,78.2229609 L2.20566016,82.7740195 C1.65189453,82.9004648 1.07089453,82.733168 0.668863281,82.3311367 C0.266832031,81.9291055 0.0995351562,81.3487539 0.225980469,80.7943398 L4.77703906,60.8446738 C1.64994922,54.9161719 0,48.2418047 0,41.5 C0,30.4149609 4.31664844,19.9934355 12.155123,12.1549609 C19.9934355,4.31664844 30.4147988,0 41.5,0 C52.5852012,0 63.0065645,4.31664844 70.844877,12.1549609 C78.6833516,19.9934355 83,30.4149609 83,41.5 C83,52.5850391 78.6833516,63.0065645 70.844877,70.8450391 C63.0065645,78.6833516 52.5852012,83 41.5,83 Z M22.392168,74.8197988 C22.6677539,74.8197988 22.9409082,74.8886953 23.1863418,75.0229219 C28.7663086,78.0780352 35.0992734,79.6931309 41.5,79.6931309 C62.559791,79.6931309 79.693293,62.559791 79.693293,41.4998379 C79.693293,20.4398848 62.559791,3.30670703 41.5,3.30670703 C20.440209,3.30670703 3.30670703,20.440209 3.30670703,41.5 C3.30670703,47.9007266 4.92180273,54.2335293 7.97691602,59.8139824 C8.17096094,60.1685156 8.22834766,60.5815703 8.13886328,60.9756582 L4.03522656,78.9649355 L22.024666,74.8612988 C22.1457617,74.8335781 22.269127,74.8197988 22.392168,74.8197988 Z" id="Shape" fill="#FFFFFF"></path>
                        <path d="M37.3367782,57 L20.6632218,57 C19.9915178,57 19.3853697,56.5978219 19.1275489,55.9802725 C18.869565,55.3630477 19.0101352,54.6516891 19.4840298,54.1774501 L33.3377012,40.3105844 L20.6632218,40.3105844 C19.744786,40.3105844 19.0000246,39.569525 19.0000246,38.6552922 C19.0000246,37.7410593 19.744786,37 20.6632218,37 L37.3367782,37 C38.0084822,37 38.6146303,37.4021781 38.8724511,38.0197275 C39.130435,38.6369523 38.9898648,39.3483109 38.5159702,39.8225499 L24.6624619,53.6894156 L37.3367782,53.6894156 C38.255214,53.6894156 38.9999754,54.430475 38.9999754,55.3447078 C38.9999754,56.2589407 38.255377,57 37.3367782,57 Z" id="Shape" fill="#FFFFFF"></path>
                        <path d="M62.3220516,49 L41.6779484,49 C41.0002969,49 40.3887819,48.5943192 40.1286782,47.9713912 C39.8684101,47.3487906 40.010225,46.6312364 40.4883156,46.152867 L58.2875658,28.339418 L41.6779484,28.339418 C40.7513805,28.339418 40.0000248,27.5919044 40.0000248,26.669709 C40.0000248,25.7475136 40.7513805,25 41.6779484,25 L62.3220516,25 C62.9997031,25 63.6112181,25.4056808 63.8713218,26.0286088 C64.1315899,26.6512094 63.989775,27.3687636 63.5116844,27.847133 L45.7124342,45.660582 L62.3220516,45.660582 C63.2486195,45.660582 63.9999752,46.4080956 63.9999752,47.330291 C64.0001397,48.2524864 63.2486195,49 62.3220516,49 Z" id="Shape" fill="#FFFFFF"></path>
                        <path d="M56.6617585,73 C56.0564502,73 55.4727891,72.6778525 55.1801448,72.1183166 C54.7651041,71.325496 55.0916028,70.356686 55.9091515,69.9541989 C61.8448839,67.0330899 66.6775848,62.4963505 69.8846284,56.8350148 C70.3261991,56.0557683 71.3354803,55.7711863 72.1388688,56.1990853 C72.9424201,56.6271421 73.236041,57.6058959 72.794633,58.3851425 C69.2646716,64.6164313 63.9453152,69.6097963 57.4115987,72.8252733 C57.1708751,72.9438096 56.9143637,73 56.6617585,73 Z" id="Shape" fill="#FFFFFF"></path>
                        <path d="M47.5772195,77 C46.8273927,77 46.1620839,76.4355968 46.0250904,75.6315177 C45.8710694,74.7282119 46.442108,73.8643361 47.3001365,73.7023797 C48.206461,73.5311361 49.1163458,73.3147599 50.0044045,73.0591165 C50.84587,72.8174854 51.7138054,73.3383853 51.9436759,74.2237684 C52.1737012,75.1089885 51.6783573,76.023048 50.8372015,76.2651679 C49.8588973,76.5467177 48.8564451,76.7850901 47.8578628,76.9739306 C47.7635926,76.9913645 47.6697869,77 47.5772195,77 Z" id="Shape" fill="#FFFFFF"></path>
                    </g>
                </g>
            </g>
        </g>
    </g>
</svg>