<?xml version="1.0" encoding="UTF-8"?>
<svg width="9px" height="14px" viewBox="0 0 9 14" version="1.1" xmlns="http://www.w3.org/2000/svg" xmlns:xlink="http://www.w3.org/1999/xlink">
    <!-- Generator: Sketch 51.3 (57544) - http://www.bohemiancoding.com/sketch -->
    <title>Shape</title>
    <desc>Created with Sketch.</desc>
    <defs></defs>
    <g id="QUESTIONS" stroke="none" stroke-width="1" fill="none" fill-rule="evenodd">
        <g id="QUESTION-1---UI-Hover-2" transform="translate(-902.000000, -550.000000)" fill="#FFFFFF" fill-rule="nonzero">
            <g id="socials" transform="translate(305.000000, 536.000000)">
                <g id="social" transform="translate(578.000000, 0.000000)">
                    <path d="M26.8273652,14.0027819 L25.1076415,14 C23.175591,14 21.927015,15.2915108 21.927015,17.2904662 L21.927015,18.8075914 L20.1979098,18.8075914 C20.0484946,18.8075914 19.9275,18.9297181 19.9275,19.0803596 L19.9275,21.2785012 C19.9275,21.4291427 20.0486326,21.5511303 20.1979098,21.5511303 L21.927015,21.5511303 L21.927015,27.0977413 C21.927015,27.2483828 22.0480096,27.3703704 22.1974249,27.3703704 L24.4534153,27.3703704 C24.6028305,27.3703704 24.7238251,27.2482437 24.7238251,27.0977413 L24.7238251,21.5511303 L26.7455524,21.5511303 C26.8949676,21.5511303 27.0159622,21.4291427 27.0159622,21.2785012 L27.01679,19.0803596 C27.01679,19.0080294 26.9882314,18.9387594 26.9375986,18.8875719 C26.8869657,18.8363844 26.8179836,18.8075914 26.7462422,18.8075914 L24.7238251,18.8075914 L24.7238251,17.5215054 C24.7238251,16.9033607 24.8699292,16.5895591 25.6686039,16.5895591 L26.8270893,16.5891418 C26.9763665,16.5891418 27.0973611,16.4670151 27.0973611,16.3165127 L27.0973611,14.275411 C27.0973611,14.1250477 26.9765045,14.0030601 26.8273652,14.0027819 Z" id="Shape"></path>
                </g>
            </g>
        </g>
    </g>
</svg>