<?xml version="1.0" encoding="UTF-8"?>
<svg width="167px" height="240px" viewBox="0 0 167 240" version="1.1" xmlns="http://www.w3.org/2000/svg" xmlns:xlink="http://www.w3.org/1999/xlink">
    <!-- Generator: Sketch 51.3 (57544) - http://www.bohemiancoding.com/sketch -->
    <title>toilet</title>
    <desc>Created with Sketch.</desc>
    <defs></defs>
    <g id="QUESTIONS" stroke="none" stroke-width="1" fill="none" fill-rule="evenodd">
        <g id="QUESTION-1---UI-Hover-2" transform="translate(-335.000000, -201.000000)" fill="#000000" fill-rule="nonzero">
            <g id="toilet" transform="translate(335.000000, 201.000000)">
                <path d="M154.06338,120.234375 L150.169531,120.234375 C150.412093,119.013061 150.535211,117.766113 150.535211,116.517334 L150.535211,29.9194336 C152.751343,28.9306641 154.298592,26.7114258 154.298592,24.140625 L154.298592,16.97937 C154.298592,7.6171875 146.654225,0 137.258638,0 L30.3404161,0 C20.6140623,0 12.7014085,7.88452125 12.7014085,17.5762941 L12.7014085,24.140625 C12.7014085,26.7114258 14.2486573,28.9306641 16.4647887,29.9194336 L16.4647887,44.8828125 C16.4647887,46.8237305 18.043277,48.3984375 19.9929577,48.3984375 C21.9426385,48.3984375 23.5211268,46.8237305 23.5211268,44.8828125 L23.5211268,30.46875 L143.478873,30.46875 L143.478873,116.517334 C143.478873,117.800903 143.284089,119.04419 142.900033,120.234375 L128.601761,120.234375 C126.65208,120.234375 125.073592,121.809082 125.073592,123.75 C125.073592,125.690918 126.65208,127.265625 128.601761,127.265625 L145.184155,127.265625 L145.230095,127.265625 L145.296248,127.265625 L154.06338,127.265625 C157.306723,127.265625 159.943662,129.893189 159.943662,133.125 L159.943662,134.296875 L7.05633803,134.296875 L7.05633803,133.125 C7.05633803,129.893189 9.69327697,127.265625 12.9366197,127.265625 L21.7019144,127.265625 L21.768068,127.265625 L21.8158451,127.265625 L113.724648,127.265625 C115.674329,127.265625 117.252817,125.690918 117.252817,123.75 C117.252817,121.809082 115.674329,120.234375 113.724648,120.234375 L24.0999671,120.234375 C23.7159109,119.04419 23.5211268,117.799072 23.5211268,116.517334 L23.5211268,60 C23.5211268,58.059082 21.9426385,56.484375 19.9929577,56.484375 C18.043277,56.484375 16.4647887,58.059082 16.4647887,60 L16.4647887,116.517334 C16.4647887,117.766113 16.5879072,119.013061 16.8304689,120.234375 L12.9366197,120.234375 C5.80310323,120.234375 0,126.016846 0,133.125 L0,135.9375 C0,138.909302 2.42745367,141.328125 5.40985915,141.328125 L5.64507042,141.328125 L5.64507042,166.40625 C5.64507042,174.702759 8.16807867,182.666016 12.9421326,189.433594 C14.0612236,191.022949 16.2608163,191.40564 17.8558428,190.288696 C19.4508692,189.171753 19.8349249,186.97998 18.7139965,185.390625 C14.7815581,179.813232 12.7014085,173.248901 12.7014085,166.40625 L12.7014085,141.328125 L154.298592,141.328125 L154.298592,166.40625 C154.298592,184.628906 139.421479,199.453125 121.133803,199.453125 C116.047359,199.453125 111.26228,201.427002 107.656932,205.012207 C104.06261,208.602905 102.08169,213.369141 102.08169,218.4375 L102.08169,218.90625 L64.9183099,218.90625 L64.9183099,218.4375 C64.9183099,207.96936 56.3716878,199.453125 45.8661972,199.453125 C39.7488668,199.453125 33.7730305,197.781372 28.5836819,194.619141 C26.9225023,193.606567 24.750473,194.128418 23.7324495,195.785522 C22.716263,197.440796 23.2399759,199.605103 24.902993,200.617676 C31.2004072,204.455566 38.4496919,206.484375 45.8661972,206.484375 C52.4815141,206.484375 57.8619718,211.845703 57.8619718,218.4375 L57.8619718,219.210205 C53.0107394,220.374756 49.3943662,224.734497 49.3943662,229.921875 L49.3943662,234.609375 C49.3943662,237.581177 51.8218199,240 54.8042254,240 L112.195775,240 C115.17818,240 117.605634,237.581177 117.605634,234.609375 L117.605634,229.921875 C117.605634,224.734497 113.989261,220.374756 109.138028,219.210205 L109.138028,218.4375 C109.138028,215.245972 110.385751,212.241211 112.647822,209.985352 C114.915405,207.727661 117.929049,206.484375 121.133803,206.484375 C143.311653,206.484375 161.35493,188.505249 161.35493,166.40625 L161.35493,141.328125 L161.590141,141.328125 C164.572546,141.328125 167,138.909302 167,135.9375 L167,133.125 C167,126.016846 161.196897,120.234375 154.06338,120.234375 Z M19.7577465,17.5762941 C19.7577465,11.7626953 24.5060739,7.03125 30.3404161,7.03125 L137.258638,7.03125 C142.764052,7.03125 147.242254,11.4935302 147.242254,16.97937 L147.242254,23.4375 L19.7577465,23.4375 L19.7577465,17.5762941 Z M110.549296,229.921875 L110.549296,232.96875 L56.4507042,232.96875 L56.4507042,229.921875 C56.4507042,227.724609 58.2441901,225.9375 60.4492958,225.9375 L106.550704,225.9375 C108.75581,225.9375 110.549296,227.724609 110.549296,229.921875 Z" id="Shape"></path>
            </g>
        </g>
    </g>
</svg>