<?xml version="1.0" encoding="UTF-8"?>
<svg width="16px" height="13px" viewBox="0 0 16 13" version="1.1" xmlns="http://www.w3.org/2000/svg" xmlns:xlink="http://www.w3.org/1999/xlink">
    <!-- Generator: Sketch 51.3 (57544) - http://www.bohemiancoding.com/sketch -->
    <title>Shape</title>
    <desc>Created with Sketch.</desc>
    <defs></defs>
    <g id="QUESTIONS" stroke="none" stroke-width="1" fill="none" fill-rule="evenodd">
        <g id="QUESTION-1---UI-Hover-2" transform="translate(-654.000000, -551.000000)" fill="#FFFFFF" fill-rule="nonzero">
            <g id="socials" transform="translate(305.000000, 536.000000)">
                <g id="social" transform="translate(333.000000, 0.000000)">
                    <path d="M32,16.5144414 C31.4111101,16.7714358 30.7792398,16.9457265 30.1153433,17.023538 C30.7932268,16.6237432 31.3121296,15.9896125 31.5580646,15.2363185 C30.9221943,15.6065542 30.2203108,15.8753928 29.4724403,16.0211285 C28.8735635,15.3919158 28.021719,15 27.0768808,15 C25.2642243,15 23.7944964,16.4474957 23.7944964,18.2317542 C23.7944964,18.4848091 23.8234899,18.7319676 23.87949,18.9683118 C21.1520084,18.8333904 18.7334685,17.54641 17.1147731,15.5907962 C16.8318184,16.0673983 16.6708508,16.622739 16.6708508,17.2155436 C16.6708508,18.3371165 17.2507471,19.326729 18.1305917,19.9057067 C17.5926823,19.8879918 17.086773,19.7422561 16.6438703,19.5000155 L16.6438703,19.5403889 C16.6438703,21.1060438 17.775663,22.4127217 19.2763714,22.7101153 C19.0014167,22.7829831 18.7114816,22.8233566 18.4115334,22.8233566 C18.1995853,22.8233566 17.9946176,22.8026806 17.79365,22.7632857 C18.2115592,24.0483092 19.423352,24.9827687 20.8590929,25.0083883 C19.7362937,25.8749237 18.3205528,26.3899167 16.782851,26.3899167 C16.5179093,26.3899167 16.2569416,26.3741587 16,26.3456038 C17.4527344,27.2643311 19.177417,27.8 21.031067,27.8 C27.0689331,27.8 30.3693307,22.8745701 30.3693307,18.6029941 L30.3583241,18.1845059 C31.0031879,17.731515 31.5610712,17.1623732 32,16.5144414 Z" id="Shape"></path>
                </g>
            </g>
        </g>
    </g>
</svg>